<svg id="Capa_1" enable-background="new 0 0 512 512" height="512" viewBox="0 0 512 512" width="512" xmlns="http://www.w3.org/2000/svg"><g><path d="m315.033 175.507h-74.033-74.033l23.939 216.493 35.094 15h15 15l35.094-15 13.33-121-33.424-15 36.758-15z" fill="#91f2e2"/><path d="m291.094 392 13.33-121-33.424-15 36.758-15 7.275-65.493h-74.033v231.493h15z" fill="#73d3e6"/><g><path d="m241 0c-57.9 0-105 48.1-105 106s47.1 105 105 105 105-47.1 105-105-47.1-106-105-106z" fill="#f3f5f9"/></g><path d="m346 106c0 57.9-47.1 105-105 105v-211c57.9 0 105 48.1 105 106z" fill="#e1e6f0"/><path d="m256 241c-8.291 0-15 6.709-15 15s6.709 15 15 15h48.424l3.334-30z" fill="#594848"/><g><path d="m376 106c0 8.399-6.599 15-15 15h-240c-8.401 0-15-6.601-15-15 0-8.401 6.599-15 15-15h240c8.401 0 15 6.599 15 15z" fill="#e1e6f0"/></g><path d="m376 106c0 8.399-6.599 15-15 15h-120v-30h120c8.401 0 15 6.599 15 15z" fill="#cfd7e6"/><path d="m391 482h-120c-8.262 0-15-6.724-15-15v-30c0-8.291-6.709-15-15-15s-15 6.709-15 15v30c0 13.248 5.861 25.052 15 33.296 7.98 7.196 18.433 11.704 30 11.704h120c8.291 0 15-6.709 15-15s-6.709-15-15-15z" fill="#594848"/><path d="m391 512c8.291 0 15-6.709 15-15s-6.709-15-15-15h-120c-8.262 0-15-6.724-15-15v-30c0-8.291-6.709-15-15-15v78.296c7.98 7.196 18.433 11.704 30 11.704z" fill="#403333"/><path d="m241 392h-50.094l5.182 46.655c.85 7.603 7.266 13.345 14.912 13.345h30 30c7.646 0 14.062-5.742 14.912-13.345l5.182-46.655z" fill="#735c5c"/><path d="m285.912 438.655 5.182-46.655h-50.094v60h30c7.646 0 14.062-5.742 14.912-13.345z" fill="#594848"/></g></svg>